<svg version="1.0" preserveAspectRatio="xMidYMid meet" height="1080" viewBox="0 0 810 809.999993" zoomAndPan="magnify" width="1080" xmlns:xlink="http://www.w3.org/1999/xlink" xmlns="http://www.w3.org/2000/svg"><defs><clipPath id="21a3d0a9a8"><path clip-rule="nonzero" d="M 24 68 L 785 68 L 785 759.644531 L 24 759.644531 Z M 24 68"></path></clipPath></defs><g clip-path="url(#21a3d0a9a8)"><path fill-rule="nonzero" fill-opacity="1" d="M 503.441406 521.765625 C 510.667969 522.269531 518.042969 525.65625 525.78125 533.4375 L 711.152344 719.765625 L 635.671875 719.765625 Z M 330.546875 375.335938 C 337.308594 375.035156 345.203125 377.3125 353.082031 381.457031 C 384.597656 397.976562 399.015625 409.25 406.132812 423.140625 C 414.46875 439.253906 415.980469 465.425781 415.980469 511.609375 C 415.875 514.027344 416.136719 516.257812 416.535156 518.324219 L 353.128906 554.953125 C 332.011719 567.136719 317.90625 572.441406 294.925781 573.550781 C 303.113281 511.300781 306.800781 463.347656 309.875 401.808594 C 310.746094 383.582031 319.175781 375.859375 330.546875 375.335938 Z M 449.691406 114.53125 L 483.691406 115.695312 C 483.226562 116.464844 482.722656 117.210938 482.265625 118.132812 C 469.742188 145.566406 452.921875 160.464844 433.867188 170.117188 C 442.210938 155.769531 447.914062 137.824219 449.691406 114.53125 Z M 624.496094 68.707031 C 619.644531 68.707031 615.765625 71.539062 615.765625 75.078125 L 615.765625 77.253906 L 403.863281 82.753906 C 379.960938 83.363281 380.921875 112.320312 403.863281 113.066406 L 425.234375 113.777344 C 419.375 143.226562 405.589844 158.390625 389.265625 170.710938 C 379.914062 177.78125 359.8125 188.296875 346.066406 188.597656 L 280.441406 189.917969 C 266.085938 190.21875 255.027344 202.59375 256.890625 216.84375 C 269.179688 309.148438 266.746094 424.59375 247.546875 569.492188 C 247.285156 570.957031 247.285156 572.375 247.285156 573.792969 L 234.761719 573.792969 C 195.195312 573.792969 185.144531 581.824219 154.375 611.128906 L 28.960938 730.679688 C 20.6875 738.558594 23.609375 759.628906 38.363281 759.628906 L 772.996094 759.628906 C 784.054688 759.628906 789.40625 741.847656 778.347656 730.679688 L 545.53125 496.652344 C 533.554688 484.632812 519.351562 479.578125 503.847656 480.082031 C 491.121094 480.480469 477.472656 484.777344 463.425781 491.753906 C 463.234375 455.539062 461.671875 427.136719 448.417969 401.371094 C 434.578125 374.597656 407.597656 356.097656 369.144531 337.511719 L 366.011719 234.171875 C 436.796875 226.496094 495.410156 183.910156 513.492188 135.351562 C 516.324219 127.871094 515.558594 121.457031 513.144531 116.609375 L 615.765625 119.984375 L 615.765625 122.3125 C 615.765625 125.796875 619.644531 128.628906 624.496094 128.628906 C 629.347656 128.628906 633.238281 125.796875 633.238281 122.3125 L 633.238281 75.078125 C 633.238281 71.539062 629.347656 68.707031 624.496094 68.707031 Z M 624.496094 68.707031" fill="#259c30"></path></g><path fill-rule="evenodd" fill-opacity="1" d="M 355.050781 123.488281 C 345.261719 148.542969 316.703125 160.96875 291.296875 151.316406 C 265.929688 141.722656 253.347656 113.570312 263.15625 88.613281 C 273.011719 63.554688 301.503906 51.128906 326.871094 60.722656 C 352.265625 70.375 364.847656 98.46875 355.050781 123.488281 Z M 355.050781 123.488281" fill="#259c30"></path></svg>