<svg version="1.0" preserveAspectRatio="xMidYMid meet" height="1080" viewBox="0 0 810 809.999993" zoomAndPan="magnify" width="1080" xmlns:xlink="http://www.w3.org/1999/xlink" xmlns="http://www.w3.org/2000/svg"><defs><clipPath id="142a69ac13"><path clip-rule="nonzero" d="M 33.203125 122.328125 L 687.820312 122.328125 L 687.820312 776.453125 L 33.203125 776.453125 Z M 33.203125 122.328125"></path></clipPath><clipPath id="41739c5952"><path clip-rule="nonzero" d="M 303 33.203125 L 776.453125 33.203125 L 776.453125 507 L 303 507 Z M 303 33.203125"></path></clipPath></defs><g clip-path="url(#142a69ac13)"><path fill-rule="nonzero" fill-opacity="1" d="M 546.710938 636.449219 C 443.898438 739.261719 276.660156 739.328125 173.765625 636.660156 C 71.75 534.867188 70.605469 368.757812 171.269531 265.621094 C 253.417969 181.449219 378.109375 164.148438 477.773438 213.6875 C 481.761719 215.675781 486.578125 214.90625 489.734375 211.753906 L 521.164062 180.320312 C 526.015625 175.464844 524.910156 167.292969 518.917969 163.949219 C 470.90625 137.191406 416.617188 122.949219 360.132812 122.949219 C 272.808594 122.949219 190.703125 156.953125 128.960938 218.699219 C 67.207031 280.449219 33.203125 362.550781 33.203125 449.878906 C 33.203125 536.796875 66.894531 618.539062 128.097656 680.191406 C 188.046875 740.570312 269.445312 775.34375 354.519531 776.761719 C 445.664062 778.277344 531.488281 742.792969 594.9375 677.371094 C 654.089844 616.371094 687.175781 534.398438 687.0625 449.425781 C 686.992188 393.097656 672.746094 338.96875 646.046875 291.074219 C 642.710938 285.082031 634.539062 283.996094 629.691406 288.847656 L 598.261719 320.277344 C 595.097656 323.433594 594.339844 328.253906 596.335938 332.257812 C 645.398438 430.988281 628.867188 554.292969 546.710938 636.449219" fill="#259c30"></path></g><path fill-rule="nonzero" fill-opacity="1" d="M 221.132812 310.875 C 145.175781 386.828125 144.492188 509.980469 219.074219 586.789062 C 294.769531 664.746094 420.40625 666.265625 497.90625 590.105469 C 552.046875 536.886719 568.746094 459.9375 547.996094 392.085938 C 545.707031 384.605469 536.273438 382.265625 530.746094 387.792969 L 495.3125 423.226562 C 493.011719 425.523438 491.945312 428.765625 492.375 431.984375 C 497.664062 471.414062 485.394531 512.773438 455.550781 543.253906 C 404.078125 595.832031 318.894531 596.640625 266.46875 545.011719 C 213.675781 493.023438 213.429688 407.777344 265.730469 355.476562 C 296.3125 324.890625 338.164062 312.28125 378.042969 317.636719 C 381.257812 318.066406 384.484375 317 386.777344 314.707031 L 422.21875 279.265625 C 427.734375 273.75 425.421875 264.308594 417.960938 262.027344 C 350.617188 241.414062 274.308594 257.699219 221.132812 310.875" fill="#259c30"></path><g clip-path="url(#41739c5952)"><path fill-rule="nonzero" fill-opacity="1" d="M 710.382812 115.121094 C 701.945312 114.851562 695.160156 108.066406 694.890625 99.628906 L 693 40.988281 C 692.773438 33.964844 684.265625 30.597656 679.296875 35.566406 L 602.839844 112.023438 C 590.738281 124.125 584.191406 140.691406 584.742188 157.796875 C 585.109375 169.179688 580.746094 180.199219 572.695312 188.253906 L 378.609375 382.335938 C 372.214844 388.734375 363.742188 392.527344 354.738281 393.382812 C 342.054688 394.574219 329.707031 400.027344 319.992188 409.738281 C 319.4375 410.296875 318.890625 410.859375 318.347656 411.449219 C 298.445312 433.046875 298.476562 466.816406 318.421875 488.378906 C 340.425781 512.171875 377.570312 512.71875 400.273438 490.015625 C 409.964844 480.324219 415.417969 467.988281 416.628906 455.328125 C 417.488281 446.304688 421.261719 437.804688 427.675781 431.394531 L 621.753906 237.3125 C 629.804688 229.265625 640.832031 224.902344 652.210938 225.265625 C 669.320312 225.820312 685.886719 219.269531 697.988281 207.167969 L 774.4375 130.714844 C 779.414062 125.746094 776.046875 117.238281 769.023438 117.011719 L 710.382812 115.121094" fill="#259c30"></path></g></svg>