<svg version="1.0" preserveAspectRatio="xMidYMid meet" height="1080" viewBox="0 0 810 809.999993" zoomAndPan="magnify" width="1080" xmlns:xlink="http://www.w3.org/1999/xlink" xmlns="http://www.w3.org/2000/svg"><defs><clipPath id="66a934d881"><path clip-rule="nonzero" d="M 101 266 L 776 266 L 776 789.507812 L 101 789.507812 Z M 101 266"></path></clipPath></defs><rect fill-opacity="1" height="971.999992" y="-80.999999" fill="#ffffff" width="972" x="-81"></rect><rect fill-opacity="1" height="971.999992" y="-80.999999" fill="#ffffff" width="972" x="-81"></rect><path fill-rule="nonzero" fill-opacity="1" d="M 474.046875 223.390625 L 408.371094 191.78125 C 406.472656 190.859375 404.238281 190.859375 402.324219 191.78125 L 215.675781 281.449219 C 213.265625 282.609375 211.726562 285.046875 211.726562 287.738281 C 211.726562 290.414062 213.257812 292.847656 215.667969 294.015625 L 281.347656 325.644531 C 282.316406 326.109375 283.34375 326.339844 284.386719 326.339844 C 285.414062 326.339844 286.457031 326.101562 287.410156 325.644531 L 474.046875 235.964844 C 476.476562 234.804688 478 232.355469 478 229.679688 C 477.992188 226.988281 476.476562 224.550781 474.046875 223.390625 Z M 474.046875 223.390625" fill="#259c30"></path><path fill-rule="nonzero" fill-opacity="1" d="M 183.648438 320.113281 C 181.621094 321.386719 180.386719 323.625 180.386719 326.015625 L 180.386719 533.15625 C 180.386719 535.839844 181.917969 538.273438 184.335938 539.441406 L 378.265625 632.816406 C 379.21875 633.277344 380.261719 633.484375 381.289062 633.484375 C 382.589844 633.484375 383.871094 633.128906 385.007812 632.433594 C 387.035156 631.167969 388.269531 628.921875 388.269531 626.527344 L 388.269531 419.390625 C 388.269531 416.714844 386.738281 414.265625 384.320312 413.105469 L 190.382812 319.738281 C 188.230469 318.695312 185.6875 318.828125 183.648438 320.113281 Z M 229.980469 418.421875 C 232.78125 412.582031 238.785156 408.796875 245.261719 408.796875 C 247.828125 408.796875 250.296875 409.378906 252.65625 410.519531 L 324.117188 444.882812 C 328.199219 446.847656 331.273438 450.285156 332.761719 454.582031 C 334.261719 458.855469 334.003906 463.46875 332.035156 467.578125 C 328.15625 475.667969 317.746094 479.5625 309.375 475.476562 L 237.914062 441.105469 C 233.832031 439.160156 230.765625 435.730469 229.261719 431.449219 C 227.746094 427.167969 228 422.546875 229.980469 418.421875 Z M 229.980469 418.421875" fill="#259c30"></path><path fill-rule="nonzero" fill-opacity="1" d="M 422.285156 419.398438 L 422.285156 626.539062 C 422.285156 628.929688 423.511719 631.175781 425.546875 632.441406 C 426.675781 633.136719 427.964844 633.496094 429.257812 633.496094 C 430.285156 633.496094 431.328125 633.289062 432.28125 632.824219 L 626.226562 539.449219 C 628.644531 538.28125 630.175781 535.847656 630.175781 533.164062 L 630.175781 326.140625 C 630.175781 323.730469 628.949219 321.503906 626.914062 320.226562 C 624.894531 318.953125 622.324219 318.8125 620.179688 319.839844 L 426.226562 413.105469 C 423.808594 414.273438 422.285156 416.722656 422.285156 419.398438 Z M 422.285156 419.398438" fill="#259c30"></path><path fill-rule="nonzero" fill-opacity="1" d="M 594.917969 281.617188 L 529.355469 250.035156 C 527.453125 249.117188 525.222656 249.117188 523.3125 250.035156 L 336.636719 339.699219 C 334.226562 340.859375 332.679688 343.292969 332.679688 345.984375 C 332.679688 348.660156 334.21875 351.113281 336.636719 352.261719 L 402.257812 383.84375 C 403.210938 384.300781 404.238281 384.539062 405.28125 384.539062 C 406.316406 384.539062 407.351562 384.300781 408.304688 383.84375 L 594.917969 294.179688 C 597.335938 293.019531 598.878906 290.585938 598.878906 287.894531 C 598.871094 285.226562 597.335938 282.792969 594.917969 281.617188 Z M 594.917969 281.617188" fill="#259c30"></path><path fill-rule="nonzero" fill-opacity="1" d="M 77.679688 567.957031 C 79.839844 567.957031 82.042969 567.550781 84.179688 566.699219 C 93.117188 563.085938 97.441406 552.941406 93.84375 543.996094 C 38.320312 406.097656 78.886719 250.722656 194.78125 157.382812 C 315.203125 60.367188 482.792969 60.414062 602.382812 147.128906 L 569.433594 173.648438 C 563.925781 178.082031 561.648438 185.386719 563.636719 192.152344 C 565.617188 198.910156 571.488281 203.839844 578.503906 204.582031 L 679.25 215.417969 C 679.878906 215.484375 680.5 215.523438 681.144531 215.523438 C 689.933594 215.523438 697.496094 208.898438 698.457031 199.953125 L 709.320312 99.25 C 710.082031 92.234375 706.53125 85.453125 700.34375 82.082031 C 694.148438 78.6875 686.546875 79.347656 681.039062 83.804688 L 630.457031 124.527344 C 497.992188 23.1875 308.394531 21.050781 172.898438 130.210938 C 44.964844 233.257812 0.199219 404.78125 61.488281 557.015625 C 64.230469 563.824219 70.769531 567.957031 77.679688 567.957031 Z M 77.679688 567.957031" fill="#259c30"></path><g clip-path="url(#66a934d881)"><path fill-rule="nonzero" fill-opacity="1" d="M 747.726562 276.878906 C 744.039062 267.992188 733.84375 263.777344 724.917969 267.460938 C 716.023438 271.15625 711.804688 281.359375 715.492188 290.246094 C 772.191406 426.871094 731.21875 587.195312 615.882812 680.132812 C 495.457031 777.140625 327.867188 777.074219 208.265625 690.351562 L 241.1875 663.832031 C 246.6875 659.417969 248.964844 652.105469 246.976562 645.355469 C 244.988281 638.578125 239.125 633.667969 232.117188 632.914062 L 131.390625 622.039062 C 126.710938 621.519531 122.1875 622.894531 118.578125 625.800781 C 114.972656 628.699219 112.679688 632.914062 112.183594 637.519531 L 101.332031 738.238281 C 100.570312 745.246094 104.117188 752.027344 110.300781 755.398438 C 112.929688 756.824219 115.800781 757.546875 118.667969 757.546875 C 122.570312 757.546875 126.445312 756.238281 129.617188 753.675781 L 180.195312 712.953125 C 245.855469 763.183594 325.515625 789.109375 405.71875 789.082031 C 487.308594 789.082031 569.425781 762.339844 637.761719 707.296875 C 765.101562 604.714844 810.316406 427.722656 747.726562 276.878906 Z M 747.726562 276.878906" fill="#259c30"></path></g></svg>