<svg version="1.0" preserveAspectRatio="xMidYMid meet" height="1080" viewBox="0 0 810 809.999993" zoomAndPan="magnify" width="1080" xmlns:xlink="http://www.w3.org/1999/xlink" xmlns="http://www.w3.org/2000/svg"><defs><clipPath id="ab37430d85"><path clip-rule="nonzero" d="M 16.078125 16.078125 L 793.828125 16.078125 L 793.828125 793.828125 L 16.078125 793.828125 Z M 16.078125 16.078125"></path></clipPath></defs><rect fill-opacity="1" height="971.999992" y="-80.999999" fill="#ffffff" width="972" x="-81"></rect><rect fill-opacity="1" height="971.999992" y="-80.999999" fill="#ffffff" width="972" x="-81"></rect><g clip-path="url(#ab37430d85)"><path fill-rule="nonzero" fill-opacity="1" d="M 46.753906 253.699219 C 66.351562 207.386719 94.386719 165.804688 130.085938 130.085938 C 165.804688 94.367188 207.386719 66.332031 253.699219 46.734375 C 301.667969 26.445312 352.589844 16.164062 405.101562 16.164062 C 457.589844 16.164062 508.53125 26.445312 556.5 46.734375 C 602.816406 66.332031 644.398438 94.367188 680.117188 130.085938 C 715.835938 165.804688 743.871094 207.386719 763.449219 253.699219 C 783.734375 301.667969 794.015625 352.589844 794.015625 405.101562 C 794.015625 453.632812 785.222656 500.828125 767.867188 545.570312 C 765.351562 552.039062 759.132812 556.3125 752.183594 556.3125 C 740.375 556.3125 732.230469 544.460938 736.5 533.449219 C 751.578125 494.652344 760.035156 452.585938 760.453125 408.617188 C 762.402344 208.601562 602.542969 48.28125 402.527344 49.707031 C 209.125 51.085938 51.945312 207.742188 49.726562 400.933594 C 47.464844 596.429688 207.699219 759.46875 403.214844 760.496094 C 429.242188 760.621094 454.617188 757.941406 479.074219 752.75 C 484.078125 751.679688 488.410156 748.5 490.652344 743.890625 C 490.671875 743.851562 490.695312 743.828125 490.714844 743.789062 C 495.40625 733.945312 483.261719 696.550781 482.484375 694.835938 C 471.953125 671.84375 451.6875 659.617188 425.535156 661.25 C 407.90625 662.339844 390.402344 665.3125 372.773438 666.527344 C 341.324219 668.683594 313.625 659.03125 290.71875 637.339844 C 264.921875 612.925781 248.109375 583.214844 241.367188 548.167969 C 240.070312 541.40625 239.085938 534.578125 239.503906 527.3125 C 239.820312 521.871094 246.101562 519.125 250.351562 522.539062 C 267.144531 536.042969 287.074219 538.871094 307.824219 539.5625 C 326.332031 540.167969 344.863281 540.671875 363.332031 542.054688 C 418.375 546.15625 449.46875 589.394531 462.429688 626.035156 C 462.449219 626.097656 462.386719 626.203125 462.28125 626.328125 C 461.402344 627.332031 459.832031 627.351562 458.828125 626.496094 C 449.949219 618.957031 441.195312 611.210938 432.046875 603.945312 C 412.804688 588.660156 367.894531 579.15625 334.101562 573.667969 C 377.734375 582.566406 442.664062 605.347656 473.878906 667.40625 C 476.414062 672.410156 478.96875 677.769531 483.636719 681.644531 C 485.167969 682.902344 487.511719 682.273438 488.078125 680.386719 C 488.097656 680.324219 488.117188 680.261719 488.117188 680.199219 C 497.289062 637.171875 489.5625 599.296875 455.457031 568.664062 C 431.523438 547.164062 403.824219 530.894531 378.511719 511.339844 C 349.867188 489.207031 325.539062 463.621094 308.597656 431.085938 C 257.386719 332.742188 297.273438 191.410156 354.828125 127.40625 C 360.167969 121.457031 365.550781 115.324219 373.316406 110.65625 C 375.683594 109.230469 378.699219 110.96875 378.636719 113.734375 C 377.503906 158.769531 400.621094 191.765625 429.746094 221.667969 C 453.257812 245.785156 477.859375 268.796875 501.414062 292.832031 C 526.957031 318.921875 548.460938 347.898438 560.082031 383.074219 C 578.464844 438.832031 571.324219 493.625 552.960938 547.789062 C 551.664062 551.644531 550.386719 555.601562 548.734375 559.433594 C 546.597656 564.332031 539.332031 562.738281 539.375 557.378906 L 539.375 557.234375 C 539.476562 510.457031 533.46875 464.75 513.933594 421.746094 C 498.042969 386.757812 473.273438 358.03125 447.625 330.019531 C 417.476562 297.0625 366.722656 212.246094 365.382812 207.21875 C 364.710938 212.707031 373.191406 247.125 378.636719 258.640625 C 392.140625 287.160156 408.785156 316.09375 429.03125 339.796875 C 467.703125 385.125 499.003906 430.183594 508.785156 490.253906 C 516.613281 538.410156 513.179688 619.25 511.066406 655.492188 C 510.394531 667.007812 512.300781 678.503906 516.425781 689.285156 C 527.105469 717.21875 527.960938 740.417969 518.917969 758.402344 C 516.050781 764.117188 511.863281 768.890625 507.421875 772.765625 C 498.585938 780.492188 487.679688 785.410156 476.140625 787.546875 C 452.878906 791.839844 429.136719 793.996094 405.078125 793.996094 C 352.589844 793.996094 301.648438 783.714844 253.679688 763.425781 C 207.367188 743.828125 165.761719 715.792969 130.0625 680.09375 C 94.34375 644.375 66.308594 602.792969 46.734375 556.480469 C 26.445312 508.511719 16.164062 457.589844 16.164062 405.078125 C 16.183594 352.609375 26.464844 301.667969 46.753906 253.699219 Z M 46.753906 253.699219" fill="#259c30"></path></g></svg>