<svg version="1.0" preserveAspectRatio="xMidYMid meet" height="1080" viewBox="0 0 810 809.999993" zoomAndPan="magnify" width="1080" xmlns:xlink="http://www.w3.org/1999/xlink" xmlns="http://www.w3.org/2000/svg"><defs><clipPath id="5c7b1679fa"><path clip-rule="nonzero" d="M 555 159 L 781.757812 159 L 781.757812 381 L 555 381 Z M 555 159"></path></clipPath><clipPath id="84385e2f5b"><path clip-rule="nonzero" d="M 28.007812 394 L 186 394 L 186 441 L 28.007812 441 Z M 28.007812 394"></path></clipPath></defs><rect fill-opacity="1" height="971.999992" y="-80.999999" fill="#ffffff" width="972" x="-81"></rect><rect fill-opacity="1" height="971.999992" y="-80.999999" fill="#ffffff" width="972" x="-81"></rect><g clip-path="url(#5c7b1679fa)"><path fill-rule="nonzero" fill-opacity="1" d="M 747.863281 159.554688 L 589.445312 159.554688 C 570.476562 159.554688 555.320312 174.792969 555.320312 193.445312 L 555.320312 259.476562 L 618.496094 260.035156 C 640.320312 260.351562 660.71875 268.921875 675.875 284.714844 C 691.117188 300.191406 699.132812 320.589844 699.132812 342.417969 C 698.8125 356.226562 695.402344 369.082031 689.050781 380.589844 L 747.863281 380.589844 C 766.832031 380.589844 781.992188 365.351562 781.992188 346.464844 L 781.992188 193.445312 C 781.992188 174.714844 766.75 159.554688 747.863281 159.554688 Z M 747.863281 159.554688" fill="#218f2b"></path></g><path fill-rule="nonzero" fill-opacity="1" d="M 239.28125 540.355469 C 235.234375 536.945312 231.265625 533.453125 228.089844 530.59375 L 212.296875 556.707031 C 211.421875 558.453125 209.757812 559.5625 207.691406 559.5625 L 76.261719 575.359375 C 51.023438 578.53125 32.925781 601.46875 36.101562 626.46875 C 38.957031 652.027344 61.894531 669.804688 87.214844 666.945312 L 218.644531 651.152344 C 248.804688 647.742188 275.472656 630.753906 291.265625 604.644531 L 299.835938 590.277344 C 282.933594 576.230469 263.644531 560.4375 247.851562 547.261719 Z M 239.28125 540.355469" fill="#218f2b"></path><path fill-rule="nonzero" fill-opacity="1" d="M 617.9375 303.128906 L 528.570312 302.175781 C 520.398438 302.097656 512.382812 299.082031 506.03125 293.84375 C 432.855469 233.128906 422.933594 231.382812 412.457031 229.476562 L 350.394531 218.445312 C 324.125 213.761719 298.328125 229 289.679688 254.238281 L 247.136719 379.003906 C 227.535156 432.972656 217.214844 464.402344 245.710938 489.164062 C 251.503906 494.246094 262.375 503.371094 275.390625 514.246094 C 314.597656 546.707031 373.011719 594.722656 373.011719 594.722656 C 385.632812 605.277344 396.1875 618.769531 402.933594 633.851562 L 459.285156 756.15625 C 466.984375 773.140625 484.046875 783.0625 501.667969 782.824219 C 508.015625 782.742188 514.285156 781.472656 520.238281 778.695312 C 543.335938 768.058594 553.492188 740.597656 542.859375 717.582031 L 486.746094 595.359375 C 474.125 568.054688 455.15625 543.214844 432.0625 523.929688 L 372.300781 474.402344 L 432.300781 332.734375 C 439.441406 338.449219 447.617188 345.113281 457.0625 352.894531 C 476.90625 369.402344 501.984375 378.609375 527.777344 378.925781 L 617.226562 379.878906 C 638.335938 380.273438 655.796875 363.050781 656.035156 341.941406 C 656.113281 320.75 639.128906 303.367188 617.9375 303.128906 Z M 617.9375 303.128906" fill="#218f2b"></path><path fill-rule="nonzero" fill-opacity="1" d="M 386.425781 203.445312 C 432.300781 213.84375 477.855469 185.03125 488.253906 139.15625 C 498.652344 93.285156 469.839844 47.726562 424.046875 37.332031 C 378.171875 26.933594 332.617188 55.742188 322.21875 101.539062 C 311.742188 147.492188 340.550781 193.046875 386.425781 203.445312 Z M 386.425781 203.445312" fill="#218f2b"></path><path fill-rule="nonzero" fill-opacity="1" d="M 167.691406 275.191406 L 221.742188 275.191406 C 234.4375 275.191406 244.675781 264.953125 244.675781 252.253906 C 244.675781 239.558594 234.359375 229.320312 221.742188 229.320312 L 167.691406 229.320312 C 154.992188 229.320312 144.753906 239.558594 144.753906 252.253906 C 144.753906 264.953125 154.992188 275.191406 167.691406 275.191406 Z M 167.691406 275.191406" fill="#218f2b"></path><path fill-rule="nonzero" fill-opacity="1" d="M 109.277344 357.734375 L 192.058594 357.734375 C 204.753906 357.734375 214.992188 347.496094 214.992188 334.796875 C 214.992188 322.097656 204.675781 311.859375 192.058594 311.859375 L 109.277344 311.859375 C 96.578125 311.859375 86.339844 322.097656 86.339844 334.796875 C 86.339844 347.496094 96.65625 357.734375 109.277344 357.734375 Z M 109.277344 357.734375" fill="#218f2b"></path><g clip-path="url(#84385e2f5b)"><path fill-rule="nonzero" fill-opacity="1" d="M 162.453125 440.195312 C 175.152344 440.195312 185.390625 429.957031 185.390625 417.257812 C 185.390625 404.5625 175.074219 394.320312 162.453125 394.320312 L 50.941406 394.320312 C 38.246094 394.320312 28.007812 404.5625 28.007812 417.257812 C 28.007812 429.957031 38.324219 440.195312 50.941406 440.195312 Z M 162.453125 440.195312" fill="#218f2b"></path></g></svg>