<svg version="1.0" preserveAspectRatio="xMidYMid meet" height="1080" viewBox="0 0 810 809.999993" zoomAndPan="magnify" width="1080" xmlns:xlink="http://www.w3.org/1999/xlink" xmlns="http://www.w3.org/2000/svg"><defs><clipPath id="1fb7124379"><path clip-rule="nonzero" d="M 28 28.898438 L 782 28.898438 L 782 778 L 28 778 Z M 28 28.898438"></path></clipPath></defs><rect fill-opacity="1" height="971.999992" y="-80.999999" fill="#ffffff" width="972" x="-81"></rect><rect fill-opacity="1" height="971.999992" y="-80.999999" fill="#ffffff" width="972" x="-81"></rect><g clip-path="url(#1fb7124379)"><path fill-rule="evenodd" fill-opacity="1" d="M 449.871094 716.671875 C 449.363281 723.339844 447.492188 729.972656 444.203125 736.121094 L 431.523438 759.832031 C 436.144531 762.488281 440.859375 765.273438 445.472656 767.808594 C 456.484375 773.863281 470.429688 769.25 476.402344 758.367188 C 482.578125 747.136719 478.363281 733.003906 467.226562 726.761719 C 461.472656 723.535156 455.675781 719.957031 449.871094 716.671875 Z M 292.277344 475.828125 C 326.816406 512.886719 366.765625 496.722656 404.726562 481.355469 C 439.40625 467.3125 472.710938 453.832031 504.4375 471.917969 L 627.898438 542.285156 C 632.300781 544.792969 636.164062 547.875 639.4375 551.367188 C 640.066406 552.035156 640.671875 552.722656 641.257812 553.417969 L 659.621094 545.757812 L 596.65625 383.339844 C 568.613281 398.347656 548.253906 389.726562 520.6875 378.457031 C 490.59375 366.15625 455.332031 351.742188 407.339844 384.667969 C 381.125 402.574219 360.085938 428.070312 333.605469 447.953125 C 320.476562 457.808594 306.671875 467.089844 292.277344 475.828125 Z M 298.070312 602.132812 C 288.027344 596.769531 276.519531 595.082031 265.367188 597.289062 C 263.394531 581.417969 253.910156 567.410156 239.730469 559.84375 C 220.410156 549.53125 196.496094 553.308594 181.253906 568.90625 C 178.210938 553.171875 173.992188 537.851562 156.21875 530.953125 C 155.15625 530.539062 153.382812 529.796875 151.0625 528.800781 L 221.933594 368.460938 L 230.089844 372.222656 C 254.894531 385.996094 277.894531 380.609375 302.882812 374.753906 C 325.355469 369.488281 349.78125 363.761719 377.441406 375.964844 C 357.253906 392.773438 339.738281 412.105469 318.613281 427.96875 C 304.132812 438.84375 288.25 449.253906 271.179688 459.214844 C 262.441406 464.320312 260.179688 476.042969 266.386719 484.035156 C 313.886719 545.152344 365.363281 524.316406 414.132812 504.570312 C 443.09375 492.847656 470.90625 481.589844 492.097656 493.667969 L 615.554688 564.035156 C 626.546875 570.300781 631.035156 584.234375 624.867188 595.542969 C 618.515625 606.535156 605.042969 611.101562 593.683594 604.929688 C 565.421875 588.757812 536.84375 573.074219 508.566406 556.886719 C 502.5625 553.453125 494.90625 555.535156 491.472656 561.542969 C 488.039062 567.546875 490.121094 575.203125 496.128906 578.636719 C 524.382812 594.8125 552.789062 610.726562 581.195312 626.636719 C 592.304688 632.890625 596.609375 646.921875 590.417969 658.171875 C 584.441406 669.042969 569.96875 673.636719 559.035156 667.347656 L 447.207031 604.421875 C 441.171875 601.039062 433.542969 603.1875 430.160156 609.222656 C 426.78125 615.253906 428.929688 622.886719 434.960938 626.265625 C 465.386719 643.386719 495.746094 660.785156 526.167969 677.851562 C 537.382812 684.160156 541.578125 698.214844 535.328125 709.535156 C 529.121094 720.628906 515.035156 724.675781 503.902344 718.519531 L 438.902344 681.730469 C 434.78125 676.679688 429.726562 672.546875 423.980469 669.476562 C 412.019531 663.085938 398.105469 661.917969 385.273438 666.171875 C 381.675781 653.125 373.003906 642.195312 361.027344 635.804688 C 349.066406 629.421875 335.152344 628.25 322.320312 632.503906 C 318.730469 619.457031 310.046875 608.523438 298.070312 602.132812 Z M 355.199219 749.265625 C 353.398438 759.5 358.414062 769.992188 367.605469 774.90625 C 379.332031 781.175781 394.117188 776.695312 400.390625 764.972656 L 422.125 724.332031 C 428.398438 712.597656 423.820312 697.765625 412.191406 691.550781 C 402.433594 686.335938 390.125 688.535156 382.734375 696.742188 Z M 361.261719 685.265625 C 363.980469 674.554688 359.027344 663.109375 349.242188 657.886719 C 339.480469 652.675781 327.171875 654.863281 319.78125 663.070312 L 289.046875 722.023438 C 287.546875 732.101562 292.53125 742.210938 301.554688 747.035156 C 312.191406 752.726562 325.636719 749.582031 332.664062 739.785156 Z M 298.308594 651.59375 C 301.027344 640.882812 296.074219 629.4375 286.289062 624.214844 C 277.222656 619.375 265.984375 620.855469 258.433594 627.777344 L 222.785156 691.570312 C 216.511719 703.292969 220.996094 718.082031 232.71875 724.351562 C 244.582031 730.695312 259.261719 726.070312 265.585938 714.257812 Z M 238.550781 613.328125 C 243.804688 601.816406 239.125 587.890625 227.949219 581.925781 C 216.21875 575.664062 201.4375 580.121094 195.160156 591.851562 L 172.492188 634.234375 C 166.222656 645.957031 170.703125 660.746094 182.425781 667.015625 C 191.445312 671.835938 202.613281 670.382812 210.164062 663.546875 Z M 405.074219 28.960938 L 569.875 99.589844 L 569.875 232.847656 C 569.875 279.671875 553.816406 321.375 526.6875 353.949219 C 516.566406 349.832031 505.9375 345.667969 494.566406 342.761719 C 497.328125 339.917969 499.980469 336.96875 502.515625 333.925781 C 525.152344 306.757812 538.527344 272.074219 538.527344 232.847656 L 538.527344 128.53125 C 538.527344 123.039062 534.996094 118.375 530.085938 116.675781 L 409.972656 65.199219 C 406.714844 63.8125 403.195312 63.917969 400.175781 65.199219 L 279.265625 117.019531 C 274.507812 119.042969 271.652344 123.667969 271.648438 128.53125 L 271.625 232.847656 C 271.625 272.074219 284.996094 306.757812 307.632812 333.925781 C 311.074219 338.054688 314.726562 342.003906 318.578125 345.769531 C 311.261719 347.070312 304.152344 348.734375 297.199219 350.363281 C 292.402344 351.484375 287.695312 352.589844 283.085938 353.492188 C 256.183594 320.984375 240.273438 279.453125 240.273438 232.847656 L 240.273438 99.589844 Z M 405.074219 90.320312 L 296.703125 136.765625 L 296.703125 232.847656 C 296.703125 266.03125 307.894531 295.222656 326.832031 317.957031 C 335.152344 327.9375 344.976562 336.703125 356.023438 344.042969 C 369.785156 345.632812 384.402344 350.132812 400.128906 359.480469 C 422.867188 345.28125 443.027344 339.671875 461.277344 338.960938 C 469.449219 332.761719 476.839844 325.726562 483.316406 317.957031 C 502.257812 295.222656 513.445312 266.03125 513.445312 232.84375 L 513.445312 136.765625 Z M 481.734375 199.464844 C 454.980469 226.46875 428.410156 253.648438 401.53125 280.527344 C 393.671875 288.382812 380.925781 288.382812 373.070312 280.527344 L 328.476562 235.933594 C 320.617188 228.078125 320.617188 215.332031 328.476562 207.472656 C 336.332031 199.617188 349.082031 199.617188 356.9375 207.472656 L 387.253906 237.792969 L 453.230469 171.15625 C 461.039062 163.269531 473.78125 163.246094 481.648438 171.070312 C 489.511719 178.886719 489.535156 191.59375 481.734375 199.464844 Z M 779.785156 533.070312 L 689.945312 301.332031 C 685.601562 290.128906 672.878906 284.515625 661.671875 288.859375 L 617.0625 306.152344 C 605.859375 310.496094 600.246094 323.21875 604.585938 334.421875 L 694.425781 566.160156 C 698.769531 577.367188 711.492188 582.980469 722.699219 578.636719 L 767.308594 561.34375 C 778.511719 557 784.128906 544.277344 779.785156 533.070312 Z M 655.683594 354.457031 C 647.472656 354.457031 640.816406 347.800781 640.816406 339.589844 C 640.816406 331.378906 647.472656 324.722656 655.683594 324.722656 C 663.890625 324.722656 670.550781 331.378906 670.550781 339.589844 C 670.550781 347.800781 663.890625 354.457031 655.683594 354.457031 Z M 203.808594 293.382812 L 160.046875 274.039062 C 149.050781 269.183594 136.082031 274.199219 131.226562 285.191406 L 30.75 512.523438 C 25.890625 523.515625 30.910156 536.484375 41.902344 541.339844 L 85.664062 560.683594 C 96.65625 565.542969 109.625 560.523438 114.480469 549.53125 L 214.960938 322.203125 C 219.816406 311.210938 214.800781 298.242188 203.808594 293.382812 Z M 162.992188 339.847656 C 154.792969 339.464844 148.449219 332.507812 148.832031 324.304688 C 149.210938 316.105469 156.167969 309.765625 164.371094 310.144531 C 172.570312 310.523438 178.910156 317.480469 178.53125 325.683594 C 178.148438 333.886719 171.191406 340.226562 162.992188 339.847656 Z M 162.992188 339.847656" fill="#259c30"></path></g></svg>